<?xml version="1.0" encoding="iso-8859-1"?>
<!-- Generator: Adobe Illustrator 25.1.0, SVG Export Plug-In . SVG Version: 6.00 Build 0)  -->
<svg version="1.1" id="Layer_1" xmlns="http://www.w3.org/2000/svg" xmlns:xlink="http://www.w3.org/1999/xlink" x="0px" y="0px"
	 width="720px" height="251.357px" viewBox="0 0 720 251.357" enable-background="new 0 0 720 251.357" xml:space="preserve">
<path fill="#010101" d="M716.107,5.13c-42.517,17.981-379.364,160.47-505.348,213.548c-39.244,16.534-79.481,29.468-122.773,28.791
	c-8.107-0.127-16.351-1.01-24.258-2.77c-46.165-10.279-69.449-48.062-56.1-95.393c6.02-21.345,16.338-41.998,27.689-61.203
	c18.79-31.79,42.307-60.228,71.649-84.239c-2.251,4.981-5.009,9.798-6.661,14.97c-5.413,16.941-12.209,33.703-15.21,51.097
	c-5.854,33.935,12.981,59.831,46.528,68.545c27.035,7.024,53.311,2.596,79.401-4.172C293.861,112.815,716.018,4.444,716.107,5.13z"
	/>
<g>
</g>
<g>
</g>
<g>
</g>
<g>
</g>
<g>
</g>
</svg>
